<?xml version="1.0" standalone="no"?>
<!DOCTYPE svg PUBLIC "-//W3C//DTD SVG 20010904//EN"
 "http://www.w3.org/TR/2001/REC-SVG-20010904/DTD/svg10.dtd">
<svg version="1.0" xmlns="http://www.w3.org/2000/svg"
 width="960.000000pt" height="960.000000pt" viewBox="0 0 960.000000 960.000000"
 preserveAspectRatio="xMidYMid meet">

<g transform="translate(0.000000,960.000000) scale(0.100000,-0.100000)"
fill="#000000" stroke="none">
<path d="M1685 4994 c-123 -19 -214 -66 -255 -131 -78 -123 -28 -271 114 -337
59 -27 125 -41 291 -61 150 -18 186 -28 224 -64 64 -60 46 -136 -44 -181 -46
-23 -60 -25 -195 -25 -152 0 -235 17 -332 66 -20 10 -41 19 -46 19 -8 0 -62
-103 -62 -119 0 -12 103 -56 180 -78 52 -14 102 -18 245 -18 164 0 187 2 255
24 165 55 239 203 170 341 -51 102 -144 145 -383 180 -217 31 -290 61 -303
126 -8 41 31 87 94 109 104 37 323 29 450 -15 31 -11 57 -20 58 -20 1 0 12 17
25 38 12 20 31 47 41 58 l20 22 -49 16 c-98 32 -202 48 -333 51 -74 2 -148 1
-165 -1z"/>
<path d="M2728 4993 l-446 -3 -4 -56 c-2 -41 1 -58 11 -62 7 -3 98 -2 202 1
l189 5 0 -404 0 -404 75 0 75 0 0 405 0 405 190 0 190 0 0 60 c0 51 -3 60 -17
58 -10 -2 -219 -4 -465 -5z"/>
<path d="M4135 4982 c21 -14 153 -171 309 -365 l159 -197 -2 -175 -2 -175 75
0 76 0 0 181 0 182 97 121 c54 66 155 190 225 274 70 84 128 155 128 157 0 3
-42 5 -94 5 -72 0 -95 -3 -99 -14 -11 -28 -325 -426 -336 -426 -4 0 -52 60
-107 132 -54 73 -130 172 -167 220 l-68 88 -102 0 c-56 0 -97 -4 -92 -8z"/>
<path d="M5300 4842 c0 -82 3 -291 7 -465 l6 -317 64 0 63 0 0 406 0 406 183
-4 c158 -4 189 -7 238 -26 91 -36 149 -114 149 -199 0 -49 -40 -133 -76 -162
-62 -49 -89 -54 -282 -59 l-183 -4 3 -60 3 -60 145 1 c179 2 257 14 335 50
105 49 164 127 186 246 25 137 -44 285 -161 345 -88 45 -131 50 -412 50 l-268
0 0 -148z"/>
<path d="M6587 4983 c-5 -8 -449 -892 -455 -905 -2 -5 32 -8 75 -8 l79 0 49
100 49 100 261 0 260 0 55 -105 55 -105 83 0 c45 0 82 2 82 4 0 2 -34 68 -76
147 -42 79 -148 287 -235 462 l-159 317 -59 0 c-33 0 -62 -3 -64 -7z m73 -202
c0 -5 41 -93 90 -195 50 -103 90 -192 90 -197 0 -5 -84 -9 -200 -9 -110 0
-200 2 -200 5 0 2 46 96 102 209 87 176 118 225 118 187z"/>
<path d="M7310 4525 l0 -465 273 0 c149 0 323 3 385 7 l112 6 0 56 0 56 -315
-4 -315 -3 0 406 0 406 -70 0 -70 0 0 -465z"/>
<path d="M3369 4524 l-225 -454 82 0 81 0 49 105 48 105 269 -2 270 -3 51
-102 51 -101 75 -4 c41 -2 77 -2 79 -1 3 2 -429 857 -453 896 -9 14 -24 17
-81 16 l-70 0 -226 -455z m399 81 c54 -108 96 -197 93 -198 -3 -1 -92 0 -197
3 l-191 5 95 193 c52 105 96 192 98 192 2 0 48 -88 102 -195z"/>
<path d="M2970 3373 c-12 -15 -12 -16 0 -5 8 6 21 12 30 12 13 0 13 -1 0 -10
-11 -7 1 -10 40 -10 61 1 53 13 -16 24 -33 6 -43 4 -54 -11z"/>
<path d="M2788 3373 c12 -2 30 -2 40 0 9 3 -1 5 -23 4 -22 0 -30 -2 -17 -4z"/>
<path d="M2597 3363 c18 -2 50 -2 70 0 21 2 7 4 -32 4 -38 0 -55 -2 -38 -4z"/>
<path d="M3128 3363 c7 -3 16 -2 19 1 4 3 -2 6 -13 5 -11 0 -14 -3 -6 -6z"/>
<path d="M3373 3363 c9 -2 23 -2 30 0 6 3 -1 5 -18 5 -16 0 -22 -2 -12 -5z"/>
<path d="M2920 3340 c-13 -9 -13 -10 0 -10 8 0 22 5 30 10 13 9 13 10 0 10 -8
0 -22 -5 -30 -10z"/>
<path d="M2653 3333 c9 -2 23 -2 30 0 6 3 -1 5 -18 5 -16 0 -22 -2 -12 -5z"/>
<path d="M2713 3333 c9 -2 23 -2 30 0 6 3 -1 5 -18 5 -16 0 -22 -2 -12 -5z"/>
</g>
</svg>
