<?xml version="1.0" standalone="no"?>
<!DOCTYPE svg PUBLIC "-//W3C//DTD SVG 20010904//EN"
 "http://www.w3.org/TR/2001/REC-SVG-20010904/DTD/svg10.dtd">
<svg version="1.0" xmlns="http://www.w3.org/2000/svg"
 width="1024.000000pt" height="1024.000000pt" viewBox="0 0 1024.000000 1024.000000"
 preserveAspectRatio="xMidYMid meet">

<g transform="translate(0.000000,1024.000000) scale(0.100000,-0.100000)"
fill="#000000" stroke="none">
<path d="M2540 6076 c-136 -30 -196 -62 -294 -155 -65 -62 -140 -177 -165
-254 -37 -115 -45 -178 -45 -367 0 -213 20 -329 80 -458 72 -158 165 -258 300
-323 210 -102 376 -102 591 -2 87 40 218 176 266 273 78 163 107 355 89 592
-20 248 -72 378 -202 509 -138 139 -282 200 -469 198 -53 -1 -121 -7 -151 -13z
m297 -132 c89 -43 157 -137 207 -286 132 -392 15 -966 -219 -1074 -69 -33
-161 -33 -230 0 -92 42 -198 188 -239 326 -72 242 -56 657 34 844 33 71 116
168 162 192 78 40 201 39 285 -2z"/>
<path d="M3830 6080 c-67 -12 -153 -47 -199 -81 -159 -114 -193 -439 -66 -612
53 -71 134 -125 348 -231 270 -134 334 -195 344 -331 7 -81 -9 -133 -57 -188
-59 -67 -127 -90 -246 -85 -115 5 -176 33 -266 123 -72 72 -116 151 -143 255
-20 77 -32 95 -51 79 -16 -13 -20 -257 -7 -428 7 -107 20 -123 60 -72 16 20
33 31 50 31 14 0 85 -20 159 -45 73 -24 161 -47 196 -51 167 -16 366 81 456
223 85 134 82 344 -6 483 -16 25 -53 69 -83 98 -55 54 -57 56 -392 216 -204
98 -265 170 -254 302 6 84 38 140 101 179 46 28 57 30 140 30 85 0 95 -2 154
-34 87 -47 170 -139 223 -246 30 -60 47 -85 58 -83 14 3 16 34 19 231 3 260 0
269 -67 203 -43 -42 -72 -46 -130 -15 -85 44 -246 67 -341 49z"/>
<path d="M9145 6077 c-215 -55 -344 -252 -307 -472 28 -172 120 -281 347 -415
228 -134 298 -193 340 -282 63 -135 -1 -305 -131 -348 -60 -20 -171 -8 -232
25 -134 73 -211 177 -255 345 -15 59 -27 85 -37 85 -13 0 -15 -34 -18 -235 -3
-267 0 -300 28 -300 11 0 20 4 20 8 0 19 43 52 66 52 14 0 78 -21 142 -46 106
-42 125 -46 202 -47 210 -1 383 125 435 317 13 47 16 89 13 155 -4 81 -8 98
-45 173 -60 121 -125 179 -352 313 -202 121 -269 176 -301 248 -46 103 -36
185 29 260 45 50 105 71 186 65 154 -13 263 -116 340 -320 40 -106 55 -38 55
243 0 109 -4 170 -11 174 -6 4 -25 -9 -44 -29 -18 -20 -41 -36 -51 -36 -10 0
-63 16 -119 34 -117 41 -224 52 -300 33z"/>
<path d="M635 6050 c-10 -16 10 -35 70 -69 35 -20 56 -39 62 -58 6 -17 8 -277
6 -673 -5 -730 4 -658 -90 -709 -26 -14 -48 -33 -48 -41 0 -13 39 -15 278 -18
314 -3 314 -3 218 65 -78 55 -80 64 -81 381 0 147 0 273 0 280 0 9 63 12 283
12 l282 0 -2 -299 c0 -165 -4 -308 -7 -318 -4 -11 -38 -37 -76 -58 -39 -21
-69 -43 -67 -49 5 -14 536 -21 550 -7 5 5 -16 27 -50 53 -32 24 -63 55 -70 68
-10 19 -13 177 -13 676 l0 652 33 29 c18 16 47 35 64 42 34 14 50 39 30 47
-27 10 -540 -1 -544 -12 -2 -6 25 -25 59 -41 35 -17 69 -37 75 -45 9 -10 13
-100 15 -311 l3 -297 -285 0 -285 0 3 287 c3 233 6 292 18 311 8 12 40 35 70
50 35 17 54 32 52 42 -3 13 -41 15 -275 18 -183 1 -274 -1 -278 -8z"/>
<path d="M4505 6048 c-2 -7 -6 -93 -8 -190 -4 -136 -2 -179 8 -188 16 -13 21
-6 69 87 72 137 149 196 272 209 l62 7 1 -654 c2 -740 7 -693 -79 -757 -73
-54 -81 -62 -75 -72 10 -16 555 -13 555 3 0 6 -25 31 -55 54 -92 71 -85 14
-83 760 l3 658 57 -1 c115 -2 200 -67 283 -216 22 -39 46 -73 53 -76 17 -5 18
358 0 376 -18 18 -1057 17 -1063 0z"/>
<path d="M5681 6046 c-11 -13 -17 -358 -6 -376 11 -17 22 -3 66 80 78 151 157
210 283 213 60 2 61 2 56 -23 -3 -14 -5 -52 -4 -85 6 -918 4 -1214 -7 -1238
-7 -15 -36 -45 -66 -67 -91 -69 -88 -70 202 -70 140 0 255 3 255 7 0 4 -26 31
-57 59 l-58 51 -1 687 -1 686 43 0 c117 0 225 -85 282 -222 17 -40 35 -74 41
-76 17 -6 15 362 -1 376 -20 15 -1014 14 -1027 -2z"/>
<path d="M6814 6049 c-2 -3 21 -30 50 -60 37 -37 57 -67 64 -94 14 -59 17
-1267 3 -1293 -6 -12 -38 -37 -71 -58 -33 -20 -60 -43 -60 -50 0 -21 922 -21
939 0 7 8 26 96 42 196 39 235 33 256 -38 147 -53 -81 -177 -199 -245 -233
-55 -28 -220 -53 -268 -41 l-25 6 0 333 0 333 103 3 104 3 38 -39 c30 -30 40
-48 45 -87 8 -63 12 -75 23 -75 17 0 22 73 22 318 0 178 -3 243 -11 240 -7 -2
-26 -46 -43 -98 -26 -80 -36 -98 -64 -117 -35 -23 -111 -37 -177 -31 l-40 3
-5 295 c-4 254 -3 297 10 308 12 11 40 13 124 8 149 -9 178 -25 303 -173 52
-62 100 -113 105 -113 7 0 8 18 5 48 -4 26 -11 101 -18 167 -6 68 -17 130 -26
143 l-14 23 -436 -3 c-239 -2 -437 -6 -439 -9z"/>
<path d="M7877 6054 c-14 -15 -6 -24 41 -48 27 -13 54 -31 61 -39 9 -12 13
-170 14 -693 l2 -678 -45 -33 c-25 -18 -54 -39 -64 -46 -49 -34 -14 -37 397
-37 221 0 407 4 414 8 17 11 29 72 54 280 16 142 19 186 10 195 -17 17 -31 -5
-82 -126 -56 -132 -80 -170 -131 -207 -56 -41 -126 -60 -217 -60 l-76 0 3 667
c2 441 6 677 13 695 6 14 35 43 66 63 30 20 53 41 50 48 -3 9 -71 13 -253 15
-138 1 -253 -1 -257 -4z"/>
</g>
</svg>
