<?xml version="1.0" standalone="no"?>
<!DOCTYPE svg PUBLIC "-//W3C//DTD SVG 20010904//EN"
 "http://www.w3.org/TR/2001/REC-SVG-20010904/DTD/svg10.dtd">
<svg version="1.0" xmlns="http://www.w3.org/2000/svg"
 width="500.000000pt" height="500.000000pt" viewBox="0 0 500.000000 500.000000"
 preserveAspectRatio="xMidYMid meet">

<g transform="translate(0.000000,500.000000) scale(0.100000,-0.100000)"
fill="#000000" stroke="none">
<path d="M2825 4650 c-33 -21 -65 -43 -71 -47 -38 -29 -202 -123 -333 -190
-69 -36 -128 -67 -131 -70 -6 -5 55 -124 93 -180 32 -49 159 -177 192 -196 12
-6 40 -22 63 -34 117 -65 284 -90 453 -68 182 24 291 72 396 174 66 64 143
153 143 165 0 4 13 24 30 47 61 85 110 211 110 285 l0 56 -47 -4 c-27 -3 -88
-17 -138 -32 -137 -42 -188 -57 -217 -63 -24 -5 -27 -11 -33 -62 l-7 -57 -58
12 c-32 6 -81 24 -108 39 -48 26 -153 124 -204 189 -28 37 -64 76 -69 76 -2 0
-31 -18 -64 -40z m130 -75 c121 -146 205 -205 312 -220 50 -7 53 -8 47 -32
-25 -97 -154 -253 -265 -318 -58 -34 -93 -44 -204 -61 -68 -10 -14 -28 65 -21
180 15 389 218 444 432 9 32 16 69 16 81 0 12 8 24 18 27 9 2 88 25 174 51
183 54 193 55 183 24 -3 -13 -11 -41 -16 -63 -27 -111 -158 -317 -261 -412
-52 -47 -119 -92 -163 -109 -151 -58 -142 -57 -315 -58 -145 0 -173 2 -228 21
-108 38 -184 84 -258 158 -63 63 -154 183 -154 204 0 5 -7 14 -15 21 -8 7 -15
16 -15 21 0 4 51 33 113 64 61 31 121 62 132 69 11 6 49 28 85 49 96 56 202
124 219 142 8 8 18 12 22 7 3 -4 32 -38 64 -77z"/>
<path d="M1290 3842 c-49 -54 -66 -83 -97 -162 -23 -58 -52 -240 -57 -351 -6
-132 -37 -293 -70 -361 -20 -42 -23 -55 -13 -65 10 -10 16 -5 31 25 10 20 22
45 27 54 19 37 48 197 54 293 16 291 51 423 141 544 42 56 49 58 133 37 31 -8
67 -17 81 -20 134 -25 445 -120 534 -162 l57 -27 -39 -41 c-22 -23 -55 -66
-72 -96 -57 -97 -67 -145 -100 -475 -11 -113 -36 -201 -80 -284 -38 -71 -104
-157 -118 -154 -6 1 -46 12 -89 24 -43 11 -127 34 -188 49 -172 45 -218 58
-247 69 -30 11 -35 4 -15 -22 11 -14 107 -45 207 -67 19 -4 60 -15 90 -23 30
-8 89 -24 131 -36 41 -11 87 -25 102 -30 24 -9 29 -6 64 37 21 26 44 53 51 61
19 20 73 129 93 186 20 60 35 164 50 345 15 188 44 272 131 381 25 30 47 61
51 71 12 32 -37 59 -213 116 -228 74 -342 102 -552 137 -23 4 -35 -5 -78 -53z"/>
<path d="M4176 3772 c-3 -6 -9 -32 -13 -59 -12 -98 -78 -186 -238 -320 -114
-95 -125 -106 -125 -125 0 -23 11 -23 31 0 8 9 37 35 63 57 225 185 296 278
296 385 0 28 3 50 7 50 4 0 25 -6 48 -14 41 -14 96 -27 298 -71 65 -14 128
-29 140 -34 12 -5 45 -11 72 -15 84 -12 85 -13 85 -59 0 -54 -25 -190 -45
-247 -45 -124 -101 -209 -214 -320 -47 -47 -93 -94 -101 -105 -36 -48 -72
-129 -82 -185 -10 -59 -11 -60 -32 -47 -18 12 -109 49 -246 102 -19 7 -77 27
-127 43 -84 27 -93 28 -93 12 0 -19 8 -23 140 -65 108 -34 198 -69 278 -107
73 -35 84 -31 101 38 27 106 70 175 179 284 108 109 135 144 185 244 56 112
87 236 87 343 0 54 -3 65 -22 77 -22 13 -61 24 -111 31 -12 1 -51 10 -87 18
-36 9 -101 23 -145 33 -44 9 -111 25 -150 35 -95 25 -171 34 -179 21z"/>
<path d="M3324 3646 c-236 -44 -340 -80 -476 -169 -27 -17 -48 -34 -48 -39 0
-5 25 -60 55 -123 30 -62 55 -118 55 -124 0 -6 6 -25 14 -43 62 -149 105 -402
106 -630 l0 -98 129 0 c177 0 311 29 579 125 23 8 50 19 60 25 9 5 34 17 55
26 22 9 41 24 45 32 3 9 -3 54 -12 101 -10 47 -19 97 -21 111 -3 36 -71 363
-90 438 -34 130 -111 291 -175 365 -21 25 -29 27 -89 26 -36 -1 -121 -11 -187
-23z m297 -78 c24 -40 54 -96 66 -124 24 -55 69 -210 83 -284 5 -25 20 -101
35 -170 14 -69 30 -150 35 -180 6 -30 14 -71 20 -90 18 -62 13 -89 -17 -96
-15 -4 -55 -19 -88 -34 -82 -38 -302 -105 -403 -124 -45 -9 -130 -16 -187 -16
l-105 0 0 117 c0 183 -30 372 -85 533 -14 41 -30 89 -36 106 -5 17 -32 75 -59
129 -28 54 -47 102 -43 106 16 15 172 89 229 108 120 40 304 75 439 84 28 2
55 4 61 5 7 1 31 -31 55 -70z"/>
<path d="M1400 3451 c0 -9 93 -41 121 -41 10 0 55 -9 101 -20 102 -24 110 -25
106 -3 -3 18 -7 19 -153 46 -119 22 -175 28 -175 18z"/>
<path d="M4216 3399 c19 -31 273 -124 290 -106 12 12 -7 25 -53 37 -60 15
-152 50 -178 67 -25 16 -69 17 -59 2z"/>
<path d="M1380 3269 c0 -26 320 -83 335 -60 8 14 -37 31 -83 31 -20 0 -54 5
-75 11 -51 14 -177 27 -177 18z"/>
<path d="M4140 3252 c0 -29 255 -110 278 -88 13 13 -27 33 -80 40 -45 6 -115
26 -180 51 -10 4 -18 3 -18 -3z"/>
<path d="M4060 3151 c0 -11 38 -36 70 -45 127 -35 180 -45 201 -38 l23 9 -21
12 c-12 6 -35 11 -51 11 -16 0 -71 14 -122 30 -106 34 -100 33 -100 21z"/>
<path d="M1330 3081 c0 -15 260 -71 328 -71 39 0 43 17 5 25 -16 4 -46 10 -68
15 -39 9 -240 40 -257 40 -4 0 -8 -4 -8 -9z"/>
<path d="M765 2929 c-60 -22 -121 -44 -135 -48 -14 -5 -43 -16 -65 -26 -22
-10 -49 -21 -60 -25 -51 -20 -131 -57 -252 -116 -138 -68 -144 -74 -105 -113
33 -34 66 -101 98 -200 19 -58 34 -115 34 -127 0 -12 5 -35 11 -52 6 -17 14
-61 17 -99 6 -53 11 -68 24 -71 16 -3 17 3 12 45 -10 87 -43 237 -69 316 -32
100 -60 155 -97 190 -26 26 -30 47 -7 47 5 0 51 20 102 44 136 64 339 150 442
186 50 17 107 38 128 46 40 15 97 19 97 7 0 -5 17 -27 38 -50 21 -23 45 -55
53 -70 7 -15 17 -30 21 -33 13 -10 68 -140 92 -218 13 -42 32 -129 41 -192 49
-331 77 -443 140 -562 l26 -47 -47 -21 c-35 -15 -45 -23 -37 -31 14 -14 123
28 123 46 0 7 -13 32 -30 56 -16 24 -30 51 -30 59 0 9 -4 20 -9 25 -10 12 -48
128 -54 170 -3 17 -12 68 -20 115 -9 47 -23 135 -32 195 -14 98 -42 213 -65
270 -50 123 -110 220 -182 296 -37 39 -68 37 -203 -12z"/>
<path d="M2190 2917 c-106 -34 -174 -186 -139 -312 15 -52 62 -111 106 -132
l35 -16 -6 -56 c-16 -141 -18 -202 -7 -267 14 -80 37 -122 85 -155 33 -23 34
-25 29 -74 -3 -27 -13 -62 -21 -77 -15 -25 -14 -29 1 -46 35 -39 149 -54 232
-31 63 17 142 56 148 73 7 17 -8 32 -18 16 -8 -12 -78 -43 -137 -59 -51 -14
-135 -11 -181 8 -25 10 -27 13 -16 33 6 12 14 44 18 72 l6 50 55 11 c59 12
105 37 114 62 11 27 0 26 -45 -4 -35 -23 -54 -28 -102 -28 -56 0 -61 2 -91 36
-17 20 -37 58 -44 83 -13 49 -16 206 -6 291 l6 50 126 0 126 0 8 -35 c13 -52
29 -90 39 -90 5 0 9 -6 9 -13 0 -16 32 -47 48 -47 7 0 12 6 12 14 0 28 41 66
70 66 54 0 67 -68 23 -120 -24 -29 -31 -32 -70 -27 -31 3 -43 1 -43 -9 0 -7 9
-16 21 -19 18 -6 20 -12 13 -48 -10 -59 -7 -209 5 -241 15 -38 35 -33 28 7
-16 91 -19 134 -12 202 5 61 10 75 24 75 9 0 31 13 48 29 48 44 56 117 16 156
-13 14 -14 24 -4 72 6 31 11 82 11 113 0 74 -22 103 -93 124 -56 16 -80 37
-117 101 -37 64 -121 140 -176 159 -54 18 -84 19 -134 3z m-80 -201 c0 -70 14
-122 36 -130 21 -8 17 -36 -5 -36 -43 0 -77 103 -60 182 15 67 29 60 29 -16z"/>
<path d="M910 2544 c-25 -9 -58 -19 -75 -24 -70 -20 -242 -87 -263 -102 -27
-19 -13 -34 17 -19 11 6 70 27 133 47 62 19 136 44 163 54 28 10 58 21 68 24
9 3 17 12 17 21 0 18 -2 18 -60 -1z"/>
<path d="M890 2345 c-41 -12 -109 -32 -150 -44 -75 -21 -99 -35 -87 -47 14
-14 298 68 317 91 19 23 -2 23 -80 0z"/>
<path d="M2254 2325 c-9 -23 14 -45 26 -25 5 8 8 19 7 24 -6 17 -27 18 -33 1z"/>
<path d="M2333 2318 c-7 -15 -15 -50 -19 -77 -7 -58 7 -72 48 -49 l23 13 -27
3 c-31 4 -33 14 -17 60 6 17 9 41 7 54 -3 22 -3 22 -15 -4z"/>
<path d="M2401 2316 c-8 -10 -8 -16 2 -24 17 -14 42 2 34 22 -8 20 -21 20 -36
2z"/>
<path d="M3978 2171 c-172 -96 -229 -159 -298 -329 -41 -101 -51 -118 -73
-122 -22 -4 -67 -47 -67 -64 0 -5 -40 -68 -57 -91 -15 -19 -64 -110 -74 -137
-19 -50 -27 -29 -21 61 6 121 -15 343 -40 405 -79 201 -282 270 -481 163 -74
-39 -216 -177 -182 -177 3 0 29 23 58 51 136 131 266 175 401 135 161 -49 214
-190 217 -583 1 -129 -1 -149 -24 -210 -33 -90 -57 -175 -57 -201 0 -34 18
-26 25 10 24 110 99 289 176 419 18 30 37 63 43 74 6 11 27 44 46 73 32 49 37
52 65 46 16 -4 43 -13 60 -20 16 -7 64 -26 105 -43 l75 -30 -3 -53 c-5 -93
-38 -303 -88 -563 -24 -125 -53 -233 -88 -324 -26 -71 -41 -95 -96 -151 -73
-76 -113 -91 -189 -70 -55 15 -130 89 -167 165 l-29 60 -1 295 c-1 202 -5 310
-14 343 -18 69 -33 59 -23 -15 4 -35 8 -180 7 -323 -1 -272 1 -251 -61 -598
-3 -15 -1 -27 4 -27 12 0 30 39 37 82 3 18 8 47 11 63 3 17 8 52 12 78 5 44
23 77 23 43 0 -24 69 -118 112 -153 112 -92 256 -57 345 83 42 64 86 169 103
244 95 412 152 814 120 846 -16 16 29 93 74 126 21 15 55 32 75 38 71 21 264
50 327 50 63 0 85 12 42 24 -54 14 -208 -2 -343 -35 -98 -24 -158 -66 -194
-138 -12 -22 -23 -41 -24 -41 -4 0 -131 44 -170 59 l-29 11 20 33 c11 17 32
62 45 98 41 109 79 158 182 236 22 16 47 33 55 36 44 19 134 75 138 85 7 22
-23 12 -110 -37z"/>
<path d="M4215 2164 c-92 -28 -186 -73 -193 -92 -3 -11 2 -11 24 1 92 47 211
80 313 86 70 4 106 10 109 19 7 23 -162 14 -253 -14z"/>
<path d="M2294 2116 c-25 -19 -12 -31 16 -14 19 12 24 10 37 -9 17 -26 33 -30
33 -9 0 20 -28 46 -49 46 -9 0 -26 -6 -37 -14z"/>
<path d="M4390 2098 c-101 -16 -205 -42 -235 -57 -48 -24 -8 -25 87 -2 46 11
124 25 173 31 115 15 136 20 129 31 -6 11 -79 10 -154 -3z"/>
<path d="M590 2090 c0 -15 28 -24 159 -55 137 -31 203 -61 253 -112 37 -39
198 -260 198 -273 0 -4 -11 -12 -24 -18 -13 -6 -56 -38 -95 -72 -39 -33 -71
-55 -71 -49 0 12 -13 44 -61 146 -11 23 -32 52 -47 64 -28 22 -32 22 -192 5
-120 -13 -340 -64 -340 -80 0 -9 27 -6 165 19 264 49 334 54 357 28 24 -27
109 -213 102 -224 -3 -6 6 -63 21 -127 14 -64 35 -155 45 -202 75 -330 225
-589 405 -702 140 -86 287 -41 405 125 23 32 36 43 41 35 6 -12 29 -94 50
-178 12 -53 38 -110 49 -110 14 0 12 33 -4 77 -7 21 -21 67 -31 103 -9 36 -23
88 -31 115 -8 28 -16 64 -18 80 -2 17 -11 59 -19 95 -17 73 -52 253 -62 317
-4 24 -11 46 -17 49 -20 13 11 -222 53 -404 l20 -84 -45 -62 c-87 -122 -157
-169 -252 -169 -106 0 -217 83 -318 238 -64 98 -116 205 -151 311 -22 68 -84
325 -100 416 -3 16 -11 38 -17 48 -10 16 -8 23 13 42 69 61 136 115 172 137
l40 24 49 -54 c51 -56 238 -294 238 -303 0 -3 15 -27 33 -53 33 -49 66 -108
113 -203 31 -64 59 -102 67 -94 10 11 -81 202 -135 285 -17 26 -17 32 2 130
55 290 108 438 187 528 58 67 102 85 208 85 107 0 152 -19 209 -86 37 -45 50
-34 18 15 -45 67 -117 97 -234 97 -101 0 -158 -22 -215 -82 -95 -101 -178
-344 -205 -607 -3 -20 -13 -11 -62 59 -33 45 -64 87 -70 93 -6 7 -22 26 -35
42 -58 76 -152 165 -174 165 -17 0 -28 12 -45 49 -46 96 -157 236 -222 279
-76 50 -380 132 -380 102z"/>
<path d="M278 1994 c-18 -5 -25 -24 -10 -24 94 -1 350 -11 390 -16 62 -7 72
10 15 25 -42 11 -368 23 -395 15z"/>
<path d="M4275 1974 c-95 -21 -110 -38 -25 -30 36 3 105 9 153 12 57 5 86 11
84 18 -6 17 -133 17 -212 0z"/>
<path d="M303 1880 c-78 -11 -103 -19 -103 -31 0 -8 17 -10 53 -5 28 3 97 8
152 11 128 8 167 14 160 26 -7 11 -186 10 -262 -1z"/>
<path d="M475 1794 c-57 -5 -198 -36 -209 -45 -21 -18 6 -19 95 -5 52 8 120
19 152 23 101 14 70 36 -38 27z"/>
<path d="M408 1614 c-16 -15 74 -216 118 -265 16 -18 57 -14 75 7 6 8 15 14
19 14 5 0 53 26 107 58 54 32 121 69 148 82 28 14 52 25 54 27 2 1 1 9 -3 18
-5 14 -11 13 -48 -6 -69 -35 -298 -170 -304 -180 -9 -16 -23 -10 -38 19 -33
58 -94 188 -97 206 -4 20 -21 31 -31 20z"/>
</g>
</svg>
