<?xml version="1.0" standalone="no"?>
<!DOCTYPE svg PUBLIC "-//W3C//DTD SVG 20010904//EN"
 "http://www.w3.org/TR/2001/REC-SVG-20010904/DTD/svg10.dtd">
<svg version="1.0" xmlns="http://www.w3.org/2000/svg"
 width="200.000000pt" height="200.000000pt" viewBox="0 0 200.000000 200.000000"
 preserveAspectRatio="xMidYMid meet">

<g transform="translate(0.000000,200.000000) scale(0.100000,-0.100000)"
fill="#f03a3a" stroke="none">
<path d="M722 1278 c-7 -7 -12 -19 -12 -27 0 -9 53 -69 117 -133 l118 -118
-118 -118 c-64 -64 -117 -124 -117 -133 0 -19 20 -39 39 -39 9 0 69 53 133
117 l118 118 118 -118 c64 -64 124 -117 133 -117 8 0 20 5 27 12 7 7 12 19 12
27 0 9 -53 69 -117 133 l-118 118 118 118 c64 64 117 124 117 133 0 19 -20 39
-39 39 -9 0 -69 -53 -133 -117 l-118 -118 -118 118 c-64 64 -124 117 -133 117
-8 0 -20 -5 -27 -12z"/>
</g>
</svg>
