<?xml version="1.0" standalone="no"?>
<!DOCTYPE svg PUBLIC "-//W3C//DTD SVG 20010904//EN"
 "http://www.w3.org/TR/2001/REC-SVG-20010904/DTD/svg10.dtd">
<svg version="1.0" xmlns="http://www.w3.org/2000/svg"
 width="512.000000pt" height="512.000000pt" viewBox="0 0 512.000000 512.000000"
 preserveAspectRatio="xMidYMid meet">

<g transform="translate(0.000000,512.000000) scale(0.100000,-0.100000)"
fill="#000000" stroke="none">
<path d="M2437 4789 c-413 -44 -769 -348 -893 -764 -24 -81 -27 -110 -32 -293
-5 -224 -1 -243 50 -261 43 -15 92 7 107 49 6 19 11 95 11 177 0 264 63 449
210 617 277 316 706 400 1079 211 193 -97 360 -296 433 -515 l32 -95 4 -352 4
-352 -1009 -4 c-907 -3 -1013 -5 -1063 -20 -196 -59 -352 -210 -418 -402 l-27
-80 0 -935 c0 -877 1 -939 18 -1000 56 -196 197 -348 387 -418 l75 -27 1122
-3 c1250 -3 1203 -5 1343 65 52 26 97 60 145 108 82 81 113 132 152 241 l28
79 0 945 0 945 -22 70 c-72 227 -278 402 -495 422 l-58 6 0 261 c0 366 -13
484 -71 643 -135 374 -481 642 -880 683 -111 11 -119 11 -232 -1z m1208 -1759
c193 -28 348 -179 375 -367 13 -93 13 -1717 0 -1803 -27 -172 -154 -311 -325
-356 -66 -18 -2173 -20 -2257 -3 -122 26 -238 117 -299 237 l-34 67 0 955 0
955 31 66 c62 130 192 228 330 248 86 12 2093 13 2179 1z"/>
<path d="M2445 2703 c-259 -35 -485 -169 -647 -383 -183 -241 -233 -588 -127
-880 103 -282 331 -496 626 -587 81 -25 101 -27 263 -27 163 0 181 2 265 28
223 68 419 217 539 408 98 158 139 308 139 503 0 230 -62 408 -205 589 -199
250 -543 391 -853 349z m247 -177 c163 -32 282 -92 394 -199 304 -288 333
-739 68 -1061 -287 -348 -821 -370 -1143 -47 -146 146 -220 330 -221 544 0
132 21 221 83 347 44 90 64 118 137 191 91 92 188 156 286 189 147 50 268 61
396 36z"/>
<path d="M2955 2115 c-17 -9 -140 -125 -275 -260 l-244 -244 -132 129 c-124
122 -134 130 -171 130 -52 0 -83 -32 -83 -85 0 -37 9 -47 173 -212 165 -164
175 -173 212 -173 37 0 49 10 328 288 159 158 295 301 303 319 19 45 2 91 -42
109 -40 17 -32 17 -69 -1z"/>
</g>
</svg>
