<?xml version="1.0" standalone="no"?>
<!DOCTYPE svg PUBLIC "-//W3C//DTD SVG 20010904//EN"
 "http://www.w3.org/TR/2001/REC-SVG-20010904/DTD/svg10.dtd">
<svg version="1.0" xmlns="http://www.w3.org/2000/svg"
 width="820.000000pt" height="512.000000pt" viewBox="0 0 820.000000 512.000000"
 preserveAspectRatio="xMidYMid meet">

<g transform="translate(0.000000,512.000000) scale(0.100000,-0.100000)"
fill="#000000" stroke="none">
<path d="M2105 4151 c-37 -9 -93 -36 -123 -59 -22 -17 -19 -20 1048 -935
l1070 -917 1070 917 c1068 916 1070 918 1048 935 -13 10 -43 28 -68 40 l-45
23 -1985 2 c-1092 0 -1998 -2 -2015 -6z"/>
<path d="M6133 3702 c-111 -97 -456 -397 -767 -667 -311 -269 -565 -494 -565
-500 1 -5 31 -35 67 -65 37 -30 383 -324 770 -652 l702 -598 0 1330 c0 732 -1
1330 -2 1329 -2 0 -94 -80 -205 -177z"/>
<path d="M1860 2546 l0 -1326 403 343 c221 188 503 429 627 534 449 381 504
428 506 438 2 6 -270 246 -603 535 -333 289 -675 586 -760 660 -85 74 -159
137 -164 138 -5 2 -9 -543 -9 -1322z"/>
<path d="M2748 1723 l-788 -676 33 -24 c17 -14 48 -32 67 -41 32 -16 183 -17
2040 -17 l2005 0 51 27 c70 37 83 54 58 77 -102 95 -1556 1332 -1563 1329 -5
-2 -131 -110 -280 -240 l-271 -237 -271 237 c-149 130 -276 238 -282 239 -7 1
-366 -302 -799 -674z"/>
</g>
</svg>
