<?xml version="1.0" standalone="no"?>
<!DOCTYPE svg PUBLIC "-//W3C//DTD SVG 20010904//EN"
 "http://www.w3.org/TR/2001/REC-SVG-20010904/DTD/svg10.dtd">
<svg version="1.0" xmlns="http://www.w3.org/2000/svg"
 width="197.000000pt" height="255.000000pt" viewBox="0 0 197.000000 255.000000"
 preserveAspectRatio="xMidYMid meet">

<g transform="translate(0.000000,255.000000) scale(0.100000,-0.100000)"
fill="#000000" stroke="none">
<path d="M810 2435 c-312 -62 -574 -300 -669 -609 -32 -102 -45 -239 -32 -323
43 -281 312 -731 748 -1256 68 -81 125 -147 128 -147 9 0 252 297 351 430 196
262 307 434 404 630 107 214 139 349 121 505 -46 389 -330 698 -709 771 -90
17 -254 17 -342 -1z m346 -115 c349 -83 594 -389 596 -745 1 -86 -3 -113 -31
-197 -76 -233 -283 -565 -586 -943 -162 -202 -140 -193 -224 -93 -327 386
-583 789 -666 1048 -106 329 92 736 432 887 143 63 328 80 479 43z"/>
<path d="M883 1996 c-104 -34 -185 -106 -232 -205 -22 -48 -26 -69 -26 -151 0
-84 3 -102 28 -152 36 -73 101 -139 175 -175 51 -25 68 -28 157 -28 89 0 106
3 157 28 74 36 139 102 175 175 25 50 28 68 28 152 0 87 -3 101 -32 161 -62
125 -175 200 -313 206 -45 2 -92 -3 -117 -11z m223 -114 c95 -49 164 -171 150
-269 -20 -147 -129 -245 -271 -245 -142 0 -251 98 -271 245 -16 117 72 248
196 288 43 14 152 4 196 -19z"/>
</g>
</svg>
