<?xml version="1.0" standalone="no"?>
<!DOCTYPE svg PUBLIC "-//W3C//DTD SVG 20010904//EN"
 "http://www.w3.org/TR/2001/REC-SVG-20010904/DTD/svg10.dtd">
<svg version="1.0" xmlns="http://www.w3.org/2000/svg"
 width="980.000000pt" height="980.000000pt" viewBox="0 0 980.000000 980.000000"
 preserveAspectRatio="xMidYMid meet">

<g transform="translate(0.000000,980.000000) scale(0.100000,-0.100000)"
fill="#111827" stroke="none">
<path d="M5100 7264 c-333 -30 -592 -98 -865 -228 -521 -248 -950 -697 -1156
-1208 -33 -81 -68 -196 -61 -202 3 -3 48 -6 100 -6 148 0 154 5 260 212 218
427 548 754 967 958 304 148 575 211 910 211 548 1 1065 -210 1463 -595 596
-577 791 -1432 511 -2232 -247 -708 -889 -1225 -1675 -1351 -152 -24 -477 -24
-632 0 -202 32 -399 96 -595 193 -131 65 -189 102 -334 211 -268 200 -483 463
-639 780 -36 72 -74 139 -86 150 -17 15 -40 19 -140 21 l-121 4 7 -29 c16 -63
81 -224 131 -323 92 -186 155 -281 302 -457 629 -752 1652 -1031 2594 -708
221 76 480 219 679 374 105 82 287 260 373 366 209 259 377 589 456 898 50
193 63 290 68 504 10 363 -37 636 -166 964 -144 368 -411 734 -716 981 -327
264 -719 434 -1135 493 -112 16 -410 27 -500 19z"/>
<path d="M5157 6140 c-265 -45 -461 -213 -545 -468 -33 -101 -37 -292 -8 -387
58 -190 184 -341 351 -421 111 -53 183 -69 320 -68 110 0 127 2 203 31 205 79
350 227 419 432 33 100 41 245 19 351 -20 97 -91 239 -156 312 -146 164 -392
253 -603 218z"/>
<path d="M3589 5597 c-19 -12 -42 -40 -53 -61 -34 -70 -17 -97 172 -288 111
-112 163 -171 156 -178 -6 -6 -306 -11 -849 -12 l-838 -3 0 -125 1 -125 881
-3 c485 -1 881 -5 881 -9 0 -4 -90 -97 -199 -207 -166 -167 -201 -208 -212
-245 -12 -39 -11 -47 7 -79 22 -43 77 -82 112 -82 70 0 125 49 461 410 80 85
174 187 211 225 37 39 70 76 74 83 5 8 -13 37 -50 80 -107 123 -597 611 -630
627 -45 21 -85 19 -125 -8z"/>
<path d="M4855 4663 c-117 -35 -546 -178 -617 -205 -145 -55 -183 -130 -182
-358 0 -112 4 -146 22 -201 28 -82 69 -138 129 -179 103 -68 56 -64 1013 -68
605 -2 885 0 930 8 147 26 252 119 290 259 16 62 22 245 9 315 -19 108 -78
185 -174 227 -101 45 -640 219 -677 219 -21 0 -73 -10 -115 -22 -111 -32 -321
-32 -443 0 -99 25 -117 26 -185 5z"/>
</g>
</svg>
