<?xml version="1.0" standalone="no"?>
<!DOCTYPE svg PUBLIC "-//W3C//DTD SVG 20010904//EN"
 "http://www.w3.org/TR/2001/REC-SVG-20010904/DTD/svg10.dtd">
<svg version="1.0" xmlns="http://www.w3.org/2000/svg"
 width="408.000000pt" height="408.000000pt" viewBox="0 0 408.000000 408.000000"
 preserveAspectRatio="xMidYMid meet">

<g transform="translate(0.000000,408.000000) scale(0.100000,-0.100000)"
fill="#000000" stroke="none">
<path d="M1900 2910 c-538 -41 -1068 -297 -1514 -729 -112 -109 -276 -293
-328 -369 l-30 -44 23 -33 c112 -157 377 -431 551 -568 210 -167 488 -325 721
-411 124 -46 293 -90 432 -112 147 -23 459 -23 604 0 536 84 1022 350 1454
795 137 142 267 303 267 331 0 36 -170 239 -336 400 -458 446 -986 701 -1533
740 -148 11 -169 11 -311 0z m-517 -437 c-163 -160 -255 -342 -290 -573 -32
-212 20 -460 134 -639 58 -91 132 -179 192 -228 50 -41 53 -45 26 -39 -55 13
-209 78 -319 134 -260 132 -582 387 -750 595 l-38 47 48 57 c196 231 474 448
757 592 112 57 282 129 310 130 5 1 -27 -34 -70 -76z m1366 47 c323 -119 632
-325 896 -599 52 -53 103 -109 115 -124 l22 -28 -25 -32 c-48 -63 -247 -256
-345 -335 -126 -103 -298 -215 -427 -279 -105 -53 -260 -117 -310 -129 -30 -7
-29 -6 10 25 99 78 223 245 272 364 133 326 96 673 -102 953 -24 33 -78 95
-121 137 -43 42 -75 77 -72 77 4 0 43 -13 87 -30z m-538 -24 c269 -57 483
-258 566 -531 14 -46 18 -92 17 -200 0 -123 -3 -150 -26 -217 -79 -239 -260
-416 -498 -490 -109 -33 -312 -33 -420 0 -210 67 -371 205 -461 395 -79 170
-91 377 -32 550 40 114 83 184 166 274 107 113 235 186 381 218 81 18 225 18
307 1z"/>
<path d="M2023 2172 c-10 -6 -9 -19 2 -57 39 -128 -55 -256 -187 -256 -60 0
-103 13 -134 42 l-22 21 -10 -34 c-19 -61 -23 -114 -13 -177 14 -89 52 -163
113 -224 163 -163 413 -164 574 -3 63 64 98 133 114 226 22 128 -31 274 -130
362 -59 52 -107 76 -189 94 -75 16 -101 17 -118 6z"/>
</g>
</svg>
