<?xml version="1.0" standalone="no"?>
<!DOCTYPE svg PUBLIC "-//W3C//DTD SVG 20010904//EN"
 "http://www.w3.org/TR/2001/REC-SVG-20010904/DTD/svg10.dtd">
<svg version="1.0" xmlns="http://www.w3.org/2000/svg"
 width="860.000000pt" height="1088.000000pt" viewBox="0 0 860.000000 1088.000000"
 preserveAspectRatio="xMidYMid meet">

<g transform="translate(0.000000,1088.000000) scale(0.100000,-0.100000)"
fill="#000000" stroke="none">
<path d="M4125 10464 c-389 -40 -664 -114 -960 -260 -252 -123 -454 -266 -663
-469 -390 -378 -636 -827 -742 -1355 -44 -221 -50 -332 -50 -1022 l0 -638
-432 0 c-487 0 -520 -4 -641 -67 -102 -53 -212 -164 -261 -263 -71 -146 -67
52 -63 -2697 2 -2267 4 -2482 19 -2524 51 -145 132 -254 242 -327 93 -62 161
-88 268 -102 107 -13 6821 -14 6925 0 238 31 434 195 506 425 l22 70 0 2485
c0 2055 -2 2495 -14 2540 -24 101 -80 199 -156 276 -76 77 -132 114 -234 153
l-66 26 -462 3 -462 3 -4 702 c-4 735 -5 752 -52 982 -102 491 -344 935 -709
1301 -210 209 -414 358 -662 482 -271 136 -529 217 -824 258 -103 14 -446 26
-525 18z m515 -419 c361 -57 692 -197 990 -418 122 -91 336 -305 427 -427 241
-325 381 -679 428 -1078 12 -100 15 -264 15 -764 l0 -638 -2196 0 -2195 0 4
708 c4 674 5 712 25 821 61 320 170 591 338 843 362 541 932 888 1589 967 116
14 450 6 575 -14z m3150 -3747 c26 -14 57 -41 75 -66 l30 -44 3 -2435 c1
-1677 -1 -2447 -8 -2474 -12 -45 -59 -102 -104 -127 -29 -16 -254 -17 -3436
-20 -1873 -2 -3428 0 -3456 3 -72 8 -129 48 -159 109 l-25 50 0 2433 c0 2174
2 2438 15 2471 21 49 52 81 100 103 39 18 157 19 3480 19 l3441 0 44 -22z"/>
<path d="M1838 4120 c-125 -22 -227 -101 -285 -218 -36 -73 -38 -80 -38 -177
0 -93 2 -105 32 -166 65 -132 189 -216 332 -226 309 -22 522 294 386 573 -25
51 -95 128 -150 164 -66 44 -189 66 -277 50z"/>
<path d="M3420 4116 c-118 -25 -226 -113 -278 -224 -24 -50 -27 -69 -27 -162
0 -97 2 -110 32 -172 40 -84 107 -151 193 -192 59 -28 74 -31 165 -31 94 0
105 2 170 34 84 42 153 109 192 188 25 53 28 68 28 168 0 98 -3 116 -27 167
-55 118 -172 207 -298 227 -77 13 -79 13 -150 -3z"/>
<path d="M5012 4115 c-107 -23 -215 -109 -266 -210 -100 -201 -15 -440 192
-538 61 -29 75 -32 167 -32 93 0 105 2 166 32 133 66 219 192 227 334 12 209
-127 386 -329 419 -77 12 -78 12 -157 -5z"/>
<path d="M6627 4120 c-205 -36 -355 -248 -320 -453 60 -352 499 -457 715 -172
125 165 92 411 -72 542 -91 72 -211 103 -323 83z"/>
</g>
</svg>
