<?xml version="1.0" standalone="no"?>
<!DOCTYPE svg PUBLIC "-//W3C//DTD SVG 20010904//EN"
 "http://www.w3.org/TR/2001/REC-SVG-20010904/DTD/svg10.dtd">
<svg version="1.0" xmlns="http://www.w3.org/2000/svg"
 width="512.000000pt" height="512.000000pt" viewBox="0 0 512.000000 512.000000"
 preserveAspectRatio="xMidYMid meet">

<g transform="translate(0.000000,512.000000) scale(0.100000,-0.100000)"
fill="#000000" stroke="none">
<path d="M2420 4619 c-172 -20 -401 -112 -541 -218 -145 -110 -284 -287 -356
-452 -109 -252 -122 -552 -34 -811 176 -520 707 -841 1246 -753 584 94 1000
628 944 1211 -51 546 -458 961 -1004 1024 -102 11 -148 11 -255 -1z"/>
<path d="M1711 2360 c-342 -90 -681 -480 -841 -970 -46 -138 -80 -318 -80
-418 0 -127 95 -267 224 -330 159 -78 342 -100 1026 -123 376 -13 1276 -7
1490 11 365 29 602 80 708 152 95 65 121 151 102 347 -49 529 -387 1086 -772
1275 -84 42 -211 76 -278 76 -28 0 -147 -29 -306 -75 -240 -70 -268 -76 -379
-82 -158 -7 -215 3 -487 87 -252 78 -284 82 -407 50z"/>
</g>
</svg>
