<?xml version="1.0" standalone="no"?>
<!DOCTYPE svg PUBLIC "-//W3C//DTD SVG 20010904//EN"
 "http://www.w3.org/TR/2001/REC-SVG-20010904/DTD/svg10.dtd">
<svg version="1.0" xmlns="http://www.w3.org/2000/svg"
 width="614.000000pt" height="460.000000pt" viewBox="0 0 614.000000 460.000000"
 preserveAspectRatio="xMidYMid meet">

<g transform="translate(0.000000,460.000000) scale(0.100000,-0.100000)"
fill="#000000" stroke="none">
<path d="M2690 3505 c-312 -57 -587 -262 -730 -545 -198 -393 -124 -862 186
-1174 161 -162 341 -254 565 -291 119 -19 199 -19 318 0 684 111 1062 849 751
1465 -145 287 -419 490 -736 545 -105 18 -252 18 -354 0z m405 -230 c525 -155
747 -757 449 -1217 -110 -171 -304 -304 -509 -349 -33 -7 -107 -13 -165 -13
-120 0 -193 14 -300 56 -335 133 -547 488 -502 842 53 423 406 727 827 712 81
-3 134 -11 200 -31z"/>
<path d="M3700 1665 l-145 -146 201 -199 c210 -209 252 -240 329 -240 107 0
205 100 205 207 -1 75 -32 118 -237 325 -108 109 -199 198 -203 198 -3 0 -70
-65 -150 -145z"/>
</g>
</svg>
